# Blender 4.0.2
# www.blender.org
mtllib -O-.mtl
o Cube.020
v -11.172071 -0.994086 7.150812
v -11.172071 0.994086 7.150812
v -11.172071 -0.994086 -7.157752
v -11.172071 0.994086 -7.157752
v 11.172071 -0.994086 7.150812
v 11.172071 0.994086 7.150812
v 11.172071 -0.994086 -7.157752
v 11.172071 0.994086 -7.157752
v 11.984184 0.994086 7.150812
v 11.984184 -0.994086 7.150812
v -11.968246 -0.994086 7.150812
v -11.968246 0.994086 7.150812
v -11.968246 -0.994086 -7.157752
v -11.968246 0.994086 -7.157752
v 11.984184 -0.994086 -7.157752
v 11.984184 0.994086 -7.157752
v -11.172071 9.966708 7.150812
v -11.172071 9.966708 -7.157752
v -11.968246 9.966708 7.150812
v -11.968246 9.966708 -7.157752
v 11.172071 10.051367 7.150812
v 11.172071 10.051367 -7.157752
v 11.984184 10.051367 7.150812
v 11.984184 10.051367 -7.157752
vn -0.0000 -0.0000 1.0000
vn -0.0000 -0.0000 -1.0000
vn 1.0000 -0.0000 -0.0000
vn -0.0000 -1.0000 -0.0000
vn -0.0000 1.0000 -0.0000
vn -1.0000 -0.0000 -0.0000
vt 0.375000 1.000000
vt 0.625000 1.000000
vt 0.375000 0.250000
vt 0.625000 0.250000
vt 0.625000 0.500000
vt 0.375000 0.500000
vt 0.625000 0.750000
vt 0.375000 0.750000
vt 0.125000 0.500000
vt 0.125000 0.750000
vt 0.875000 0.500000
vt 0.875000 0.750000
vt 0.375000 0.000000
vt 0.625000 0.000000
s 0
f 1/1/1 2/2/1 12/2/1 11/1/1
f 3/3/2 4/4/2 8/5/2 7/6/2
f 9/7/3 16/5/3 24/5/3 23/7/3
f 5/8/1 6/7/1 2/2/1 1/1/1
f 3/9/4 7/6/4 5/8/4 1/10/4
f 8/5/5 4/11/5 2/12/5 6/7/5
f 15/6/3 16/5/3 9/7/3 10/8/3
f 11/13/6 12/14/6 14/4/6 13/3/6
f 4/4/2 14/4/2 20/4/2 18/4/2
f 3/9/4 1/10/4 11/10/4 13/9/4
f 4/4/2 3/3/2 13/3/2 14/4/2
f 7/6/2 8/5/2 16/5/2 15/6/2
f 6/7/1 5/8/1 10/8/1 9/7/1
f 5/8/4 7/6/4 15/6/4 10/8/4
f 17/12/5 18/11/5 20/11/5 19/12/5
f 12/2/1 2/2/1 17/2/1 19/2/1
f 14/4/6 12/14/6 19/14/6 20/4/6
f 2/12/3 4/11/3 18/11/3 17/12/3
f 22/5/5 21/7/5 23/7/5 24/5/5
f 8/5/6 6/7/6 21/7/6 22/5/6
f 6/7/1 9/7/1 23/7/1 21/7/1
f 16/5/2 8/5/2 22/5/2 24/5/2
o Cube.022
v -10.519087 3.602287 0.322023
v -10.519087 4.708269 0.322023
v -10.519087 3.602287 -1.677977
v -10.519087 4.708269 -1.677977
v -3.985806 3.602287 0.322023
v -3.985806 4.708269 0.322023
v -3.985806 3.602287 -1.677977
v -3.985806 4.708269 -1.677977
vn -1.0000 -0.0000 -0.0000
vn -0.0000 -0.0000 -1.0000
vn 1.0000 -0.0000 -0.0000
vn -0.0000 -0.0000 1.0000
vn -0.0000 -1.0000 -0.0000
vn -0.0000 1.0000 -0.0000
vt 0.375000 0.000000
vt 0.625000 0.000000
vt 0.625000 0.250000
vt 0.375000 0.250000
vt 0.625000 0.500000
vt 0.375000 0.500000
vt 0.625000 0.750000
vt 0.375000 0.750000
vt 0.625000 1.000000
vt 0.375000 1.000000
vt 0.125000 0.500000
vt 0.125000 0.750000
vt 0.875000 0.500000
vt 0.875000 0.750000
s 0
usemtl Material.001
f 25/15/7 26/16/7 28/17/7 27/18/7
f 27/18/8 28/17/8 32/19/8 31/20/8
f 31/20/9 32/19/9 30/21/9 29/22/9
f 29/22/10 30/21/10 26/23/10 25/24/10
f 27/25/11 31/20/11 29/22/11 25/26/11
f 32/19/12 28/27/12 26/28/12 30/21/12
o Cube.023
v -3.343789 0.148750 0.911867
v -3.343789 8.715158 0.911867
v -3.343789 0.148750 -1.088133
v -3.343789 8.715158 -1.088133
v 3.494293 0.148750 0.911867
v 3.494293 8.715158 0.911867
v 3.494293 0.148750 -1.088133
v 3.494293 8.715158 -1.088133
vn -1.0000 -0.0000 -0.0000
vn -0.0000 -0.0000 -1.0000
vn 1.0000 -0.0000 -0.0000
vn -0.0000 -0.0000 1.0000
vn -0.0000 -1.0000 -0.0000
vn -0.0000 1.0000 -0.0000
vt 0.375000 0.000000
vt 0.625000 0.000000
vt 0.625000 0.250000
vt 0.375000 0.250000
vt 0.625000 0.500000
vt 0.375000 0.500000
vt 0.625000 0.750000
vt 0.375000 0.750000
vt 0.625000 1.000000
vt 0.375000 1.000000
vt 0.125000 0.500000
vt 0.125000 0.750000
vt 0.875000 0.500000
vt 0.875000 0.750000
s 0
usemtl Material.001
f 33/29/13 34/30/13 36/31/13 35/32/13
f 35/32/14 36/31/14 40/33/14 39/34/14
f 39/34/15 40/33/15 38/35/15 37/36/15
f 37/36/16 38/35/16 34/37/16 33/38/16
f 35/39/17 39/34/17 37/36/17 33/40/17
f 40/33/18 36/41/18 34/42/18 38/35/18
o Cube.007
v 4.155121 3.602287 0.322023
v 4.155121 4.708269 0.322023
v 4.155121 3.602287 -1.677977
v 4.155121 4.708269 -1.677977
v 10.688402 3.602287 0.322023
v 10.688402 4.708269 0.322023
v 10.688402 3.602287 -1.677977
v 10.688402 4.708269 -1.677977
vn -1.0000 -0.0000 -0.0000
vn -0.0000 -0.0000 -1.0000
vn 1.0000 -0.0000 -0.0000
vn -0.0000 -0.0000 1.0000
vn -0.0000 -1.0000 -0.0000
vn -0.0000 1.0000 -0.0000
vt 0.375000 0.000000
vt 0.625000 0.000000
vt 0.625000 0.250000
vt 0.375000 0.250000
vt 0.625000 0.500000
vt 0.375000 0.500000
vt 0.625000 0.750000
vt 0.375000 0.750000
vt 0.625000 1.000000
vt 0.375000 1.000000
vt 0.125000 0.500000
vt 0.125000 0.750000
vt 0.875000 0.500000
vt 0.875000 0.750000
s 0
usemtl Material.001
f 41/43/19 42/44/19 44/45/19 43/46/19
f 43/46/20 44/45/20 48/47/20 47/48/20
f 47/48/21 48/47/21 46/49/21 45/50/21
f 45/50/22 46/49/22 42/51/22 41/52/22
f 43/53/23 47/48/23 45/50/23 41/54/23
f 48/47/24 44/55/24 42/56/24 46/49/24
