# Blender 4.0.2
# www.blender.org
mtllib untitled.mtl
o Plane
v -1.000000 0.000000 11.265448
v 1.000000 0.000000 11.265448
v -1.000000 0.000000 -11.265448
v 1.000000 0.000000 -11.265448
v -1.000000 0.026353 11.265448
v -1.000000 0.026353 -11.265448
v 1.000000 0.026353 -11.265448
v -1.027156 0.026353 11.263559
v -1.027156 0.026353 -11.416746
v 0.997906 0.026353 -11.416746
v -1.027156 -0.086048 11.263559
v -1.027156 -0.086048 -11.416746
v 0.997906 -0.086048 -11.416746
v -0.582712 -0.032242 -9.475889
v -0.582712 1.646663 -9.475889
v -0.582712 -0.032242 -10.874846
v -0.582712 1.646663 -10.874846
v 0.816245 -0.032242 -9.475889
v 0.816245 1.646663 -9.475889
v 0.816245 -0.032242 -10.874846
v 0.816245 1.646663 -10.874846
v -0.536112 -0.032242 -4.367002
v -0.536112 2.650608 -4.367002
v -0.284535 -0.032242 -5.743154
v -0.284535 2.650608 -5.743154
v 0.384621 -0.032242 -4.198681
v 0.384621 2.650608 -4.198681
v 0.636198 -0.032242 -5.574832
v 0.636198 2.650608 -5.574832
v -0.210416 -0.032242 -2.154556
v -0.210416 1.144690 -2.154556
v -0.210416 -0.032242 -3.553514
v -0.210416 1.144690 -3.553514
v 0.725576 -0.032242 -2.154556
v 0.725576 1.144690 -2.154556
v 0.725576 -0.032242 -3.553514
v 0.725576 1.144690 -3.553514
v -0.708506 -0.032242 -7.176963
v -0.708506 1.366716 -7.176963
v -0.708506 -0.032242 -8.575920
v -0.708506 1.366716 -8.575920
v 0.227487 -0.032242 -7.176963
v 0.227487 1.366716 -7.176963
v 0.227487 -0.032242 -8.575920
v 0.227487 1.366716 -8.575920
v -0.339476 -0.032242 1.416397
v -0.339476 1.463250 1.416397
v -0.640531 -0.032242 0.050217
v -0.640531 1.463250 0.050217
v 0.574586 -0.032242 1.214972
v 0.574586 1.463250 1.214972
v 0.273532 -0.032242 -0.151208
v 0.273532 1.463250 -0.151208
v 0.816905 -0.032242 4.006418
v 0.816905 3.693166 4.006418
v -0.579714 -0.032242 4.087264
v -0.579714 3.693166 4.087264
v 0.762815 -0.032242 3.071990
v 0.762815 3.693166 3.071990
v -0.633805 -0.032242 3.152835
v -0.633805 3.693166 3.152835
v 0.941428 -0.032242 5.915762
v 0.941428 3.693166 5.915762
v -0.455192 -0.032242 5.996608
v -0.455192 3.693166 5.996608
v 0.887337 -0.032242 4.981334
v 0.887337 3.693166 4.981334
v -0.509282 -0.032242 5.062180
v -0.509282 3.693166 5.062180
v 0.816905 -0.032242 8.821286
v 0.816905 1.366716 8.821286
v -0.579714 -0.032242 8.902133
v -0.579714 1.366716 8.902133
v 0.762815 -0.032242 7.886858
v 0.762815 1.366716 7.886858
v -0.633805 -0.032242 7.967704
v -0.633805 1.366716 7.967704
v -0.225525 -0.032242 10.725478
v -0.225525 1.781809 10.725478
v -0.579862 -0.032242 9.372140
v -0.579862 1.781809 9.372140
v 0.679946 -0.032242 10.488404
v 0.679946 1.781809 10.488404
v 0.325609 -0.032242 9.135065
v 0.325609 1.781809 9.135065
vn -0.0000 1.0000 -0.0000
vn -0.0000 -0.0000 1.0000
vn 1.0000 -0.0000 -0.0000
vn -0.0000 -0.0000 -1.0000
vn -1.0000 -0.0000 -0.0000
vn -0.0000 -1.0000 -0.0000
vn -0.9837 -0.0000 -0.1798
vn 0.1798 -0.0000 -0.9837
vn 0.9837 -0.0000 0.1798
vn -0.1798 -0.0000 0.9837
vn -0.9766 -0.0000 0.2152
vn -0.2152 -0.0000 -0.9766
vn 0.9766 -0.0000 -0.2152
vn 0.2152 -0.0000 0.9766
vn 0.0578 -0.0000 0.9983
vn -0.9983 -0.0000 0.0578
vn -0.0578 -0.0000 -0.9983
vn 0.9983 -0.0000 -0.0578
vn -0.9674 -0.0000 0.2533
vn -0.2533 -0.0000 -0.9674
vn 0.9674 -0.0000 -0.2533
vn 0.2533 -0.0000 0.9674
vt 0.000000 0.000000
vt 1.000000 0.000000
vt 1.000000 1.000000
vt 0.000000 1.000000
vt 0.375000 0.000000
vt 0.625000 0.000000
vt 0.625000 0.250000
vt 0.375000 0.250000
vt 0.625000 0.500000
vt 0.375000 0.500000
vt 0.625000 0.750000
vt 0.375000 0.750000
vt 0.625000 1.000000
vt 0.375000 1.000000
vt 0.125000 0.500000
vt 0.125000 0.750000
vt 0.875000 0.500000
vt 0.875000 0.750000
s 0
f 1/1/1 2/2/1 4/3/1 3/4/1
f 3/4/2 4/3/2 7/3/2 6/4/2
f 1/1/3 3/4/3 6/4/3 5/1/3
f 6/4/1 7/3/1 10/3/1 9/4/1
f 5/1/1 6/4/1 9/4/1 8/1/1
f 9/4/4 10/3/4 13/3/4 12/4/4
f 8/1/5 9/4/5 12/4/5 11/1/5
f 14/5/5 15/6/5 17/7/5 16/8/5
f 16/8/4 17/7/4 21/9/4 20/10/4
f 20/10/3 21/9/3 19/11/3 18/12/3
f 18/12/2 19/11/2 15/13/2 14/14/2
f 16/15/6 20/10/6 18/12/6 14/16/6
f 21/9/1 17/17/1 15/18/1 19/11/1
f 22/5/7 23/6/7 25/7/7 24/8/7
f 24/8/8 25/7/8 29/9/8 28/10/8
f 28/10/9 29/9/9 27/11/9 26/12/9
f 26/12/10 27/11/10 23/13/10 22/14/10
f 24/15/6 28/10/6 26/12/6 22/16/6
f 29/9/1 25/17/1 23/18/1 27/11/1
f 30/5/5 31/6/5 33/7/5 32/8/5
f 32/8/4 33/7/4 37/9/4 36/10/4
f 36/10/3 37/9/3 35/11/3 34/12/3
f 34/12/2 35/11/2 31/13/2 30/14/2
f 32/15/6 36/10/6 34/12/6 30/16/6
f 37/9/1 33/17/1 31/18/1 35/11/1
f 38/5/5 39/6/5 41/7/5 40/8/5
f 40/8/4 41/7/4 45/9/4 44/10/4
f 44/10/3 45/9/3 43/11/3 42/12/3
f 42/12/2 43/11/2 39/13/2 38/14/2
f 40/15/6 44/10/6 42/12/6 38/16/6
f 45/9/1 41/17/1 39/18/1 43/11/1
f 46/5/11 47/6/11 49/7/11 48/8/11
f 48/8/12 49/7/12 53/9/12 52/10/12
f 52/10/13 53/9/13 51/11/13 50/12/13
f 50/12/14 51/11/14 47/13/14 46/14/14
f 48/15/6 52/10/6 50/12/6 46/16/6
f 53/9/1 49/17/1 47/18/1 51/11/1
f 54/5/15 55/6/15 57/7/15 56/8/15
f 56/8/16 57/7/16 61/9/16 60/10/16
f 60/10/17 61/9/17 59/11/17 58/12/17
f 58/12/18 59/11/18 55/13/18 54/14/18
f 56/15/6 60/10/6 58/12/6 54/16/6
f 61/9/1 57/17/1 55/18/1 59/11/1
f 62/5/15 63/6/15 65/7/15 64/8/15
f 64/8/16 65/7/16 69/9/16 68/10/16
f 68/10/17 69/9/17 67/11/17 66/12/17
f 66/12/18 67/11/18 63/13/18 62/14/18
f 64/15/6 68/10/6 66/12/6 62/16/6
f 69/9/1 65/17/1 63/18/1 67/11/1
f 70/5/15 71/6/15 73/7/15 72/8/15
f 72/8/16 73/7/16 77/9/16 76/10/16
f 76/10/17 77/9/17 75/11/17 74/12/17
f 74/12/18 75/11/18 71/13/18 70/14/18
f 72/15/6 76/10/6 74/12/6 70/16/6
f 77/9/1 73/17/1 71/18/1 75/11/1
f 78/5/19 79/6/19 81/7/19 80/8/19
f 80/8/20 81/7/20 85/9/20 84/10/20
f 84/10/21 85/9/21 83/11/21 82/12/21
f 82/12/22 83/11/22 79/13/22 78/14/22
f 80/15/6 84/10/6 82/12/6 78/16/6
f 85/9/1 81/17/1 79/18/1 83/11/1
