# Blender 4.0.2
# www.blender.org
mtllib untitled.mtl
o Cube
v -6.771762 -0.309533 40.243141
v -6.771762 0.309533 40.243141
v -6.771762 -0.309533 -219.973373
v -6.771762 0.309533 -219.973373
v 6.771762 -0.309533 40.243141
v 6.771762 0.309533 40.243141
v 6.771762 -0.309533 -219.973373
v 6.771762 0.309533 -219.973373
v -6.969299 -0.309533 40.243141
v -6.969299 0.309533 40.243141
v -6.969299 -0.309533 -219.973373
v -6.969299 0.309533 -219.973373
v 6.912860 -0.309533 40.243141
v 6.912860 0.309533 40.243141
v 6.912860 -0.309533 -219.973373
v 6.912860 0.309533 -219.973373
v 6.771762 1.955678 40.243141
v 6.771762 1.955678 -219.973373
v 6.912860 1.955678 40.243141
v 6.912860 1.955678 -219.973373
v -6.771762 1.979194 40.243141
v -6.771762 1.979194 -219.973373
v -6.969299 1.979194 40.243141
v -6.969299 1.979194 -219.973373
vn -0.0000 -1.0000 -0.0000
vn -0.0000 -0.0000 -1.0000
vn -0.0000 -0.0000 1.0000
vn -0.0000 1.0000 -0.0000
vn -1.0000 -0.0000 -0.0000
vn 1.0000 -0.0000 -0.0000
vt 0.125000 0.500000
vt 0.125000 0.750000
vt 0.375000 0.250000
vt 0.625000 0.250000
vt 0.625000 0.500000
vt 0.375000 0.500000
vt 0.625000 0.750000
vt 0.375000 0.750000
vt 0.625000 1.000000
vt 0.375000 1.000000
vt 0.875000 0.500000
vt 0.875000 0.750000
vt 0.375000 0.000000
vt 0.625000 0.000000
s 0
usemtl Material
f 3/1/1 1/2/1 9/2/1 11/1/1
f 3/3/2 4/4/2 8/5/2 7/6/2
f 6/7/3 5/8/3 13/8/3 14/7/3
f 5/8/3 6/7/3 2/9/3 1/10/3
f 3/1/1 7/6/1 5/8/1 1/2/1
f 8/5/4 4/11/4 2/12/4 6/7/4
f 9/13/5 10/14/5 12/4/5 11/3/5
f 4/4/2 3/3/2 11/3/2 12/4/2
f 1/10/3 2/9/3 10/9/3 9/10/3
f 4/4/2 12/4/2 24/4/2 22/4/2
f 15/6/6 16/5/6 14/7/6 13/8/6
f 5/8/1 7/6/1 15/6/1 13/8/1
f 14/7/6 16/5/6 20/5/6 19/7/6
f 7/6/2 8/5/2 16/5/2 15/6/2
f 18/5/4 17/7/4 19/7/4 20/5/4
f 16/5/2 8/5/2 18/5/2 20/5/2
f 6/7/3 14/7/3 19/7/3 17/7/3
f 8/5/5 6/7/5 17/7/5 18/5/5
f 21/12/4 22/11/4 24/11/4 23/12/4
f 12/4/5 10/14/5 23/14/5 24/4/5
f 10/9/3 2/9/3 21/9/3 23/9/3
f 2/12/6 4/11/6 22/11/6 21/12/6
o Cube.001
v 2.312994 0.120869 39.625713
v 2.312994 0.726225 39.625713
v 2.312994 0.120869 38.963230
v 2.312994 0.726225 38.963230
v 6.566154 0.120869 39.625713
v 6.566154 0.726225 39.625713
v 6.566154 0.120869 38.963230
v 6.566154 0.726225 38.963230
v -2.155114 0.120869 39.625713
v -2.155114 0.726225 39.625713
v -2.155114 0.120869 38.963234
v -2.155114 0.726225 38.963234
v 2.098046 0.120869 39.625713
v 2.098046 0.726225 39.625713
v 2.098046 0.120869 38.963234
v 2.098046 0.726225 38.963234
v -6.603625 0.120869 39.586525
v -6.603625 0.726225 39.586525
v -6.603625 0.120869 38.924042
v -6.603625 0.726225 38.924042
v -2.350465 0.120869 39.586525
v -2.350465 0.726225 39.586525
v -2.350465 0.120869 38.924042
v -2.350465 0.726225 38.924042
v -6.603625 0.120869 -104.844124
v -6.603625 0.726225 -104.844124
v -6.603625 0.120869 -105.506615
v -6.603625 0.726225 -105.506615
v -2.350465 0.120869 -104.844124
v -2.350465 0.726225 -104.844124
v -2.350465 0.120869 -105.506615
v -2.350465 0.726225 -105.506615
v 2.312994 0.120869 -126.436348
v 2.312994 0.726225 -126.436348
v 2.312994 0.120869 -127.098824
v 2.312994 0.726225 -127.098824
v 6.566154 0.120869 -126.436348
v 6.566154 0.726225 -126.436348
v 6.566154 0.120869 -127.098824
v 6.566154 0.726225 -127.098824
v -6.603625 0.120869 -126.475533
v -6.603625 0.726225 -126.475533
v -6.603625 0.120869 -127.138023
v -6.603625 0.726225 -127.138023
v -2.350465 0.120869 -126.475533
v -2.350465 0.726225 -126.475533
v -2.350465 0.120869 -127.138023
v -2.350465 0.726225 -127.138023
v -2.155114 0.120869 -142.790924
v -2.155114 0.726225 -142.790924
v -2.155114 0.120869 -143.453430
v -2.155114 0.726225 -143.453430
v 2.098046 0.120869 -142.790924
v 2.098046 0.726225 -142.790924
v 2.098046 0.120869 -143.453430
v 2.098046 0.726225 -143.453430
v 2.312994 0.120869 -168.580872
v 2.312994 0.726225 -168.580872
v 2.312994 0.120869 -169.243347
v 2.312994 0.726225 -169.243347
v 6.566154 0.120869 -168.580872
v 6.566154 0.726225 -168.580872
v 6.566154 0.120869 -169.243347
v 6.566154 0.726225 -169.243347
v -2.155114 0.120869 -168.580872
v -2.155114 0.726225 -168.580872
v -2.155114 0.120869 -169.243347
v -2.155114 0.726225 -169.243347
v 2.098046 0.120869 -168.580872
v 2.098046 0.726225 -168.580872
v 2.098046 0.120869 -169.243347
v 2.098046 0.726225 -169.243347
v -6.603625 0.120869 -168.620056
v -6.603625 0.726225 -168.620056
v -6.603625 0.120869 -169.282532
v -6.603625 0.726225 -169.282532
v -2.350465 0.120869 -168.620056
v -2.350465 0.726225 -168.620056
v -2.350465 0.120869 -169.282532
v -2.350465 0.726225 -169.282532
vn -1.0000 -0.0000 -0.0000
vn -0.0000 -0.0000 -1.0000
vn 1.0000 -0.0000 -0.0000
vn -0.0000 -0.0000 1.0000
vn -0.0000 -1.0000 -0.0000
vn -0.0000 1.0000 -0.0000
vt 0.375000 0.000000
vt 0.625000 0.000000
vt 0.625000 0.250000
vt 0.375000 0.250000
vt 0.625000 0.500000
vt 0.375000 0.500000
vt 0.625000 0.750000
vt 0.375000 0.750000
vt 0.625000 1.000000
vt 0.375000 1.000000
vt 0.125000 0.500000
vt 0.125000 0.750000
vt 0.875000 0.500000
vt 0.875000 0.750000
s 0
usemtl Material.002
f 25/15/7 26/16/7 28/17/7 27/18/7
f 27/18/8 28/17/8 32/19/8 31/20/8
f 31/20/9 32/19/9 30/21/9 29/22/9
f 29/22/10 30/21/10 26/23/10 25/24/10
f 27/25/11 31/20/11 29/22/11 25/26/11
f 32/19/12 28/27/12 26/28/12 30/21/12
f 33/15/7 34/16/7 36/17/7 35/18/7
f 35/18/8 36/17/8 40/19/8 39/20/8
f 39/20/9 40/19/9 38/21/9 37/22/9
f 37/22/10 38/21/10 34/23/10 33/24/10
f 35/25/11 39/20/11 37/22/11 33/26/11
f 40/19/12 36/27/12 34/28/12 38/21/12
f 41/15/7 42/16/7 44/17/7 43/18/7
f 43/18/8 44/17/8 48/19/8 47/20/8
f 47/20/9 48/19/9 46/21/9 45/22/9
f 45/22/10 46/21/10 42/23/10 41/24/10
f 43/25/11 47/20/11 45/22/11 41/26/11
f 48/19/12 44/27/12 42/28/12 46/21/12
f 49/15/7 50/16/7 52/17/7 51/18/7
f 51/18/8 52/17/8 56/19/8 55/20/8
f 55/20/9 56/19/9 54/21/9 53/22/9
f 53/22/10 54/21/10 50/23/10 49/24/10
f 51/25/11 55/20/11 53/22/11 49/26/11
f 56/19/12 52/27/12 50/28/12 54/21/12
f 57/15/7 58/16/7 60/17/7 59/18/7
f 59/18/8 60/17/8 64/19/8 63/20/8
f 63/20/9 64/19/9 62/21/9 61/22/9
f 61/22/10 62/21/10 58/23/10 57/24/10
f 59/25/11 63/20/11 61/22/11 57/26/11
f 64/19/12 60/27/12 58/28/12 62/21/12
f 65/15/7 66/16/7 68/17/7 67/18/7
f 67/18/8 68/17/8 72/19/8 71/20/8
f 71/20/9 72/19/9 70/21/9 69/22/9
f 69/22/10 70/21/10 66/23/10 65/24/10
f 67/25/11 71/20/11 69/22/11 65/26/11
f 72/19/12 68/27/12 66/28/12 70/21/12
f 73/15/7 74/16/7 76/17/7 75/18/7
f 75/18/8 76/17/8 80/19/8 79/20/8
f 79/20/9 80/19/9 78/21/9 77/22/9
f 77/22/10 78/21/10 74/23/10 73/24/10
f 75/25/11 79/20/11 77/22/11 73/26/11
f 80/19/12 76/27/12 74/28/12 78/21/12
f 81/15/7 82/16/7 84/17/7 83/18/7
f 83/18/8 84/17/8 88/19/8 87/20/8
f 87/20/9 88/19/9 86/21/9 85/22/9
f 85/22/10 86/21/10 82/23/10 81/24/10
f 83/25/11 87/20/11 85/22/11 81/26/11
f 88/19/12 84/27/12 82/28/12 86/21/12
f 89/15/7 90/16/7 92/17/7 91/18/7
f 91/18/8 92/17/8 96/19/8 95/20/8
f 95/20/9 96/19/9 94/21/9 93/22/9
f 93/22/10 94/21/10 90/23/10 89/24/10
f 91/25/11 95/20/11 93/22/11 89/26/11
f 96/19/12 92/27/12 90/28/12 94/21/12
f 97/15/7 98/16/7 100/17/7 99/18/7
f 99/18/8 100/17/8 104/19/8 103/20/8
f 103/20/9 104/19/9 102/21/9 101/22/9
f 101/22/10 102/21/10 98/23/10 97/24/10
f 99/25/11 103/20/11 101/22/11 97/26/11
f 104/19/12 100/27/12 98/28/12 102/21/12
o Cube.004
v -6.603624 0.120869 37.963425
v -6.603624 5.269168 37.963425
v -6.603624 0.120869 29.134850
v -6.603624 5.269168 29.134850
v -2.350465 0.120869 37.963425
v -2.350465 5.269168 37.963425
v -2.350465 0.120869 29.134850
v -2.350465 5.269168 29.134850
v -2.133636 0.120869 37.963425
v -2.133636 5.269168 37.963425
v -2.133636 0.120869 29.134851
v -2.133636 5.269168 29.134851
v 2.119524 0.120869 37.963425
v 2.119524 5.269168 37.963425
v 2.119524 0.120869 29.134851
v 2.119524 5.269168 29.134851
v 2.336352 0.120869 37.963425
v 2.336352 5.269168 37.963425
v 2.336352 0.120869 29.134851
v 2.336352 5.269168 29.134851
v 6.589511 0.120869 37.963425
v 6.589511 5.269168 37.963425
v 6.589511 0.120869 29.134851
v 6.589511 5.269168 29.134851
v -6.603623 0.120869 -17.143150
v -6.603623 5.269168 -17.143150
v -6.603623 0.120869 -25.971725
v -6.603623 5.269168 -25.971725
v -2.350464 0.120869 -17.143150
v -2.350464 5.269168 -17.143150
v -2.350464 0.120869 -25.971725
v -2.350464 5.269168 -25.971725
v -6.603623 0.120869 -48.047192
v -6.603623 5.269168 -48.047192
v -6.603623 0.120869 -56.875767
v -6.603623 5.269168 -56.875767
v -2.350464 0.120869 -48.047192
v -2.350464 5.269168 -48.047192
v -2.350464 0.120869 -56.875767
v -2.350464 5.269168 -56.875767
v 2.336352 0.120869 -48.047192
v 2.336352 5.269168 -48.047192
v 2.336352 0.120869 -56.875767
v 2.336352 5.269168 -56.875767
v 6.589511 0.120869 -48.047192
v 6.589511 5.269168 -48.047192
v 6.589511 0.120869 -56.875767
v 6.589511 5.269168 -56.875767
v -2.133636 0.120869 -76.836960
v -2.133636 5.269168 -76.836960
v -2.133636 0.120869 -85.665527
v -2.133636 5.269168 -85.665527
v 2.119524 0.120869 -76.836960
v 2.119524 5.269168 -76.836960
v 2.119524 0.120869 -85.665527
v 2.119524 5.269168 -85.665527
vn -1.0000 -0.0000 -0.0000
vn -0.0000 -0.0000 -1.0000
vn 1.0000 -0.0000 -0.0000
vn -0.0000 -0.0000 1.0000
vn -0.0000 -1.0000 -0.0000
vn -0.0000 1.0000 -0.0000
vt 0.375000 0.000000
vt 0.625000 0.000000
vt 0.625000 0.250000
vt 0.375000 0.250000
vt 0.625000 0.500000
vt 0.375000 0.500000
vt 0.625000 0.750000
vt 0.375000 0.750000
vt 0.625000 1.000000
vt 0.375000 1.000000
vt 0.125000 0.500000
vt 0.125000 0.750000
vt 0.875000 0.500000
vt 0.875000 0.750000
s 0
usemtl Material.001
f 105/29/13 106/30/13 108/31/13 107/32/13
f 107/32/14 108/31/14 112/33/14 111/34/14
f 111/34/15 112/33/15 110/35/15 109/36/15
f 109/36/16 110/35/16 106/37/16 105/38/16
f 107/39/17 111/34/17 109/36/17 105/40/17
f 112/33/18 108/41/18 106/42/18 110/35/18
f 113/29/13 114/30/13 116/31/13 115/32/13
f 115/32/14 116/31/14 120/33/14 119/34/14
f 119/34/15 120/33/15 118/35/15 117/36/15
f 117/36/16 118/35/16 114/37/16 113/38/16
f 115/39/17 119/34/17 117/36/17 113/40/17
f 120/33/18 116/41/18 114/42/18 118/35/18
f 121/29/13 122/30/13 124/31/13 123/32/13
f 123/32/14 124/31/14 128/33/14 127/34/14
f 127/34/15 128/33/15 126/35/15 125/36/15
f 125/36/16 126/35/16 122/37/16 121/38/16
f 123/39/17 127/34/17 125/36/17 121/40/17
f 128/33/18 124/41/18 122/42/18 126/35/18
f 129/29/13 130/30/13 132/31/13 131/32/13
f 131/32/14 132/31/14 136/33/14 135/34/14
f 135/34/15 136/33/15 134/35/15 133/36/15
f 133/36/16 134/35/16 130/37/16 129/38/16
f 131/39/17 135/34/17 133/36/17 129/40/17
f 136/33/18 132/41/18 130/42/18 134/35/18
f 137/29/13 138/30/13 140/31/13 139/32/13
f 139/32/14 140/31/14 144/33/14 143/34/14
f 143/34/15 144/33/15 142/35/15 141/36/15
f 141/36/16 142/35/16 138/37/16 137/38/16
f 139/39/17 143/34/17 141/36/17 137/40/17
f 144/33/18 140/41/18 138/42/18 142/35/18
f 145/29/13 146/30/13 148/31/13 147/32/13
f 147/32/14 148/31/14 152/33/14 151/34/14
f 151/34/15 152/33/15 150/35/15 149/36/15
f 149/36/16 150/35/16 146/37/16 145/38/16
f 147/39/17 151/34/17 149/36/17 145/40/17
f 152/33/18 148/41/18 146/42/18 150/35/18
f 153/29/13 154/30/13 156/31/13 155/32/13
f 155/32/14 156/31/14 160/33/14 159/34/14
f 159/34/15 160/33/15 158/35/15 157/36/15
f 157/36/16 158/35/16 154/37/16 153/38/16
f 155/39/17 159/34/17 157/36/17 153/40/17
f 160/33/18 156/41/18 154/42/18 158/35/18
